<svg xmlns="http://www.w3.org/2000/svg" xmlns:xlink="http://www.w3.org/1999/xlink" version="1.1" class="marks" width="1159" height="478" viewBox="0 0 1159 478"><rect width="1159" height="478" fill="white"/><g fill="none" stroke-miterlimit="10" transform="translate(51,41)"><g class="mark-group role-frame root" role="graphics-object" aria-roledescription="group mark container"><g transform="translate(0,0)"><path class="background" aria-hidden="true" d="M0.5,0.5h800v400h-800Z" stroke="#ddd"/><g><g class="mark-group role-axis" aria-hidden="true"><g transform="translate(0.5,400.5)"><path class="background" aria-hidden="true" d="M0,0h0v0h0Z" pointer-events="none"/><g><g class="mark-rule role-axis-grid" pointer-events="none"><line transform="translate(5,-400)" x2="0" y2="400" stroke="#ddd" stroke-width="1" opacity="1"/><line transform="translate(60,-400)" x2="0" y2="400" stroke="#ddd" stroke-width="1" opacity="1"/><line transform="translate(115,-400)" x2="0" y2="400" stroke="#ddd" stroke-width="1" opacity="1"/><line transform="translate(170,-400)" x2="0" y2="400" stroke="#ddd" stroke-width="1" opacity="1"/><line transform="translate(225,-400)" x2="0" y2="400" stroke="#ddd" stroke-width="1" opacity="1"/><line transform="translate(280,-400)" x2="0" y2="400" stroke="#ddd" stroke-width="1" opacity="1"/><line transform="translate(336,-400)" x2="0" y2="400" stroke="#ddd" stroke-width="1" opacity="1"/><line transform="translate(391,-400)" x2="0" y2="400" stroke="#ddd" stroke-width="1" opacity="1"/><line transform="translate(446,-400)" x2="0" y2="400" stroke="#ddd" stroke-width="1" opacity="1"/><line transform="translate(501,-400)" x2="0" y2="400" stroke="#ddd" stroke-width="1" opacity="1"/><line transform="translate(556,-400)" x2="0" y2="400" stroke="#ddd" stroke-width="1" opacity="1"/><line transform="translate(611,-400)" x2="0" y2="400" stroke="#ddd" stroke-width="1" opacity="1"/><line transform="translate(667,-400)" x2="0" y2="400" stroke="#ddd" stroke-width="1" opacity="1"/><line transform="translate(722,-400)" x2="0" y2="400" stroke="#ddd" stroke-width="1" opacity="1"/><line transform="translate(749,-400)" x2="0" y2="400" stroke="#ddd" stroke-width="1" opacity="1"/></g></g><path class="foreground" aria-hidden="true" d="" pointer-events="none" display="none"/></g></g><g class="mark-group role-axis" aria-hidden="true"><g transform="translate(0.5,0.5)"><path class="background" aria-hidden="true" d="M0,0h0v0h0Z" pointer-events="none"/><g><g class="mark-rule role-axis-grid" pointer-events="none"><line transform="translate(0,400)" x2="800" y2="0" stroke="#ddd" stroke-width="1" opacity="1"/><line transform="translate(0,356)" x2="800" y2="0" stroke="#ddd" stroke-width="1" opacity="1"/><line transform="translate(0,311)" x2="800" y2="0" stroke="#ddd" stroke-width="1" opacity="1"/><line transform="translate(0,267)" x2="800" y2="0" stroke="#ddd" stroke-width="1" opacity="1"/><line transform="translate(0,222)" x2="800" y2="0" stroke="#ddd" stroke-width="1" opacity="1"/><line transform="translate(0,178)" x2="800" y2="0" stroke="#ddd" stroke-width="1" opacity="1"/><line transform="translate(0,133)" x2="800" y2="0" stroke="#ddd" stroke-width="1" opacity="1"/><line transform="translate(0,89)" x2="800" y2="0" stroke="#ddd" stroke-width="1" opacity="1"/><line transform="translate(0,44)" x2="800" y2="0" stroke="#ddd" stroke-width="1" opacity="1"/><line transform="translate(0,0)" x2="800" y2="0" stroke="#ddd" stroke-width="1" opacity="1"/></g></g><path class="foreground" aria-hidden="true" d="" pointer-events="none" display="none"/></g></g><g class="mark-group role-axis" role="graphics-symbol" aria-roledescription="axis" aria-label="X-axis titled 'Date' for a time scale with values from Friday, 04 July 2025, 8:00:00 PM to Saturday, 02 August 2025, 8:00:00 PM"><g transform="translate(0.5,400.5)"><path class="background" aria-hidden="true" d="M0,0h0v0h0Z" pointer-events="none"/><g><g class="mark-rule role-axis-tick" pointer-events="none"><line transform="translate(5,0)" x2="0" y2="5" stroke="#888" stroke-width="1" opacity="1"/><line transform="translate(60,0)" x2="0" y2="5" stroke="#888" stroke-width="1" opacity="1"/><line transform="translate(115,0)" x2="0" y2="5" stroke="#888" stroke-width="1" opacity="1"/><line transform="translate(170,0)" x2="0" y2="5" stroke="#888" stroke-width="1" opacity="1"/><line transform="translate(225,0)" x2="0" y2="5" stroke="#888" stroke-width="1" opacity="1"/><line transform="translate(280,0)" x2="0" y2="5" stroke="#888" stroke-width="1" opacity="1"/><line transform="translate(336,0)" x2="0" y2="5" stroke="#888" stroke-width="1" opacity="1"/><line transform="translate(391,0)" x2="0" y2="5" stroke="#888" stroke-width="1" opacity="1"/><line transform="translate(446,0)" x2="0" y2="5" stroke="#888" stroke-width="1" opacity="1"/><line transform="translate(501,0)" x2="0" y2="5" stroke="#888" stroke-width="1" opacity="1"/><line transform="translate(556,0)" x2="0" y2="5" stroke="#888" stroke-width="1" opacity="1"/><line transform="translate(611,0)" x2="0" y2="5" stroke="#888" stroke-width="1" opacity="1"/><line transform="translate(667,0)" x2="0" y2="5" stroke="#888" stroke-width="1" opacity="1"/><line transform="translate(722,0)" x2="0" y2="5" stroke="#888" stroke-width="1" opacity="1"/><line transform="translate(749,0)" x2="0" y2="5" stroke="#888" stroke-width="1" opacity="1"/></g><g class="mark-text role-axis-label" pointer-events="none"><text text-anchor="middle" transform="translate(4.597701149425287,15)" font-family="sans-serif" font-size="10px" fill="#000" opacity="1">Sat 05</text><text text-anchor="middle" transform="translate(59.77011494252874,15)" font-family="sans-serif" font-size="10px" fill="#000" opacity="0">Mon 07</text><text text-anchor="middle" transform="translate(114.94252873563218,15)" font-family="sans-serif" font-size="10px" fill="#000" opacity="1">Wed 09</text><text text-anchor="middle" transform="translate(170.1149425287356,15)" font-family="sans-serif" font-size="10px" fill="#000" opacity="0">Fri 11</text><text text-anchor="middle" transform="translate(225.28735632183907,15)" font-family="sans-serif" font-size="10px" fill="#000" opacity="1">Jul 13</text><text text-anchor="middle" transform="translate(280.45977011494256,15)" font-family="sans-serif" font-size="10px" fill="#000" opacity="0">Tue 15</text><text text-anchor="middle" transform="translate(335.632183908046,15)" font-family="sans-serif" font-size="10px" fill="#000" opacity="1">Thu 17</text><text text-anchor="middle" transform="translate(390.8045977011494,15)" font-family="sans-serif" font-size="10px" fill="#000" opacity="0">Sat 19</text><text text-anchor="middle" transform="translate(445.9770114942529,15)" font-family="sans-serif" font-size="10px" fill="#000" opacity="1">Mon 21</text><text text-anchor="middle" transform="translate(501.1494252873563,15)" font-family="sans-serif" font-size="10px" fill="#000" opacity="0">Wed 23</text><text text-anchor="middle" transform="translate(556.3218390804598,15)" font-family="sans-serif" font-size="10px" fill="#000" opacity="1">Fri 25</text><text text-anchor="middle" transform="translate(611.4942528735633,15)" font-family="sans-serif" font-size="10px" fill="#000" opacity="0">Jul 27</text><text text-anchor="middle" transform="translate(666.6666666666667,15)" font-family="sans-serif" font-size="10px" fill="#000" opacity="1">Tue 29</text><text text-anchor="middle" transform="translate(721.8390804597701,15)" font-family="sans-serif" font-size="10px" fill="#000" opacity="0">Thu 31</text><text text-anchor="middle" transform="translate(749.4252873563219,15)" font-family="sans-serif" font-size="10px" fill="#000" opacity="1">August</text></g><g class="mark-rule role-axis-domain" pointer-events="none"><line transform="translate(0,0)" x2="800" y2="0" stroke="#888" stroke-width="1" opacity="1"/></g><g class="mark-text role-axis-title" pointer-events="none"><text text-anchor="middle" transform="translate(400,30)" font-family="sans-serif" font-size="11px" font-weight="bold" fill="#000" opacity="1">Date</text></g></g><path class="foreground" aria-hidden="true" d="" pointer-events="none" display="none"/></g></g><g class="mark-group role-axis" role="graphics-symbol" aria-roledescription="axis" aria-label="Y-axis titled 'Cost ($)' for a linear scale with values from 0 to 5"><g transform="translate(0.5,0.5)"><path class="background" aria-hidden="true" d="M0,0h0v0h0Z" pointer-events="none"/><g><g class="mark-rule role-axis-tick" pointer-events="none"><line transform="translate(0,400)" x2="-5" y2="0" stroke="#888" stroke-width="1" opacity="1"/><line transform="translate(0,356)" x2="-5" y2="0" stroke="#888" stroke-width="1" opacity="1"/><line transform="translate(0,311)" x2="-5" y2="0" stroke="#888" stroke-width="1" opacity="1"/><line transform="translate(0,267)" x2="-5" y2="0" stroke="#888" stroke-width="1" opacity="1"/><line transform="translate(0,222)" x2="-5" y2="0" stroke="#888" stroke-width="1" opacity="1"/><line transform="translate(0,178)" x2="-5" y2="0" stroke="#888" stroke-width="1" opacity="1"/><line transform="translate(0,133)" x2="-5" y2="0" stroke="#888" stroke-width="1" opacity="1"/><line transform="translate(0,89)" x2="-5" y2="0" stroke="#888" stroke-width="1" opacity="1"/><line transform="translate(0,44)" x2="-5" y2="0" stroke="#888" stroke-width="1" opacity="1"/><line transform="translate(0,0)" x2="-5" y2="0" stroke="#888" stroke-width="1" opacity="1"/></g><g class="mark-text role-axis-label" pointer-events="none"><text text-anchor="end" transform="translate(-7,403)" font-family="sans-serif" font-size="10px" fill="#000" opacity="1">0.0</text><text text-anchor="end" transform="translate(-7,358.55555555555554)" font-family="sans-serif" font-size="10px" fill="#000" opacity="1">0.5</text><text text-anchor="end" transform="translate(-7,314.11111111111114)" font-family="sans-serif" font-size="10px" fill="#000" opacity="1">1.0</text><text text-anchor="end" transform="translate(-7,269.6666666666667)" font-family="sans-serif" font-size="10px" fill="#000" opacity="1">1.5</text><text text-anchor="end" transform="translate(-7,225.22222222222223)" font-family="sans-serif" font-size="10px" fill="#000" opacity="1">2.0</text><text text-anchor="end" transform="translate(-7,180.77777777777777)" font-family="sans-serif" font-size="10px" fill="#000" opacity="1">2.5</text><text text-anchor="end" transform="translate(-7,136.33333333333334)" font-family="sans-serif" font-size="10px" fill="#000" opacity="1">3.0</text><text text-anchor="end" transform="translate(-7,91.88888888888889)" font-family="sans-serif" font-size="10px" fill="#000" opacity="1">3.5</text><text text-anchor="end" transform="translate(-7,47.444444444444464)" font-family="sans-serif" font-size="10px" fill="#000" opacity="1">4.0</text><text text-anchor="end" transform="translate(-7,3)" font-family="sans-serif" font-size="10px" fill="#000" opacity="1">4.5</text></g><g class="mark-rule role-axis-domain" pointer-events="none"><line transform="translate(0,400)" x2="0" y2="-400" stroke="#888" stroke-width="1" opacity="1"/></g><g class="mark-text role-axis-title" pointer-events="none"><text text-anchor="middle" transform="translate(-35,200) rotate(-90) translate(0,-2)" font-family="sans-serif" font-size="11px" font-weight="bold" fill="#000" opacity="1">Cost ($)</text></g></g><path class="foreground" aria-hidden="true" d="" pointer-events="none" display="none"/></g></g><g class="mark-group role-scope layer_0_pathgroup" role="graphics-object" aria-roledescription="group mark container"><g transform="translate(0,0)"><path class="background" aria-hidden="true" d="M0,0h800v400h-800Z"/><g><g class="mark-line role-mark layer_0_marks" role="graphics-object" aria-roledescription="line mark container"><path aria-label="Date: Jul 04, 2025; Cost ($): 0.48; Usage Type: USE1-PublicIPv4:InUseAddress" role="graphics-symbol" aria-roledescription="line mark" d="M0,357.333L27.586,357.333L55.172,357.333L82.759,357.333L110.345,357.333L137.931,357.333L165.517,357.333L193.103,357.333L220.69,357.333L248.276,357.333L275.862,357.333L303.448,357.333L331.034,357.333L358.621,357.2L386.207,334.997L413.793,322.269L441.379,324.413L468.966,329.598L496.552,315.813L524.138,317.819L551.724,338.541L579.31,334.704L606.897,346.554L634.483,336L662.069,336L689.655,355.167L717.241,336.873L744.828,328.89L772.414,314.667L800,304.818" stroke="#f58518" stroke-width="1.5" stroke-dasharray="5,5"/></g></g><path class="foreground" aria-hidden="true" d="" display="none"/></g><g transform="translate(0,0)"><path class="background" aria-hidden="true" d="M0,0h800v400h-800Z"/><g><g class="mark-line role-mark layer_0_marks" role="graphics-object" aria-roledescription="line mark container"><path aria-label="Date: Jul 17, 2025; Cost ($): 0.001059725; Usage Type: USE1-PublicIPv4:IdleAddress" role="graphics-symbol" aria-roledescription="line mark" d="M358.621,399.906L413.793,399.988L441.379,399.977L496.552,399.981L524.138,399.98L551.724,399.993L606.897,399.963" stroke="#4c78a8" stroke-width="1.5" stroke-dasharray="5,5"/></g></g><path class="foreground" aria-hidden="true" d="" display="none"/></g><g transform="translate(0,0)"><path class="background" aria-hidden="true" d="M0,0h800v400h-800Z"/><g><g class="mark-line role-mark layer_0_marks" role="graphics-object" aria-roledescription="line mark container"><path aria-label="Date: Jul 23, 2025; Cost ($): 0.09; Usage Type: USE1-VpcEndpoint-Hours" role="graphics-symbol" aria-roledescription="line mark" d="M524.138,392L551.724,128L579.31,80L606.897,159.111L634.483,293.333L662.069,293.333L689.655,384.889L717.241,275.556L744.828,293.333L772.414,293.333L800,293.333" stroke="#72b7b2" stroke-width="1.5" stroke-dasharray="5,5"/></g></g><path class="foreground" aria-hidden="true" d="" display="none"/></g><g transform="translate(0,0)"><path class="background" aria-hidden="true" d="M0,0h800v400h-800Z"/><g><g class="mark-line role-mark layer_0_marks" role="graphics-object" aria-roledescription="line mark container"><path aria-label="Date: Jul 24, 2025; Cost ($): 0.0001314555; Usage Type: USE1-VpcEndpoint-Bytes" role="graphics-symbol" aria-roledescription="line mark" d="M551.724,399.988L579.31,399.997L606.897,399.997L662.069,400L689.655,400L717.241,399.998L744.828,399.964L800,399.966" stroke="#e45756" stroke-width="1.5" stroke-dasharray="5,5"/></g></g><path class="foreground" aria-hidden="true" d="" display="none"/></g><g transform="translate(0,0)"><path class="background" aria-hidden="true" d="M0,0h800v400h-800Z"/><g><g class="mark-line role-mark layer_0_marks" role="graphics-object" aria-roledescription="line mark container"><path aria-label="Date: Jul 04, 2025; Cost ($): 0.48; Usage Type: 📊 TOTAL" role="graphics-symbol" aria-roledescription="line mark" d="M0,357.333L27.586,357.333L55.172,357.333L82.759,357.333L110.345,357.333L137.931,357.333L165.517,357.333L193.103,357.333L220.69,357.333L248.276,357.333L275.862,357.333L303.448,357.333L331.034,357.333L358.621,357.106L386.207,334.997L413.793,322.258L441.379,324.39L468.966,329.598L496.552,315.794L524.138,309.798L551.724,66.522L579.31,14.701L606.897,105.625L634.483,229.333L662.069,229.333L689.655,340.056L717.241,212.428L744.828,222.187L772.414,208L800,198.117" stroke="#54a24b" stroke-width="3" stroke-dasharray="0"/></g></g><path class="foreground" aria-hidden="true" d="" display="none"/></g></g><g class="mark-symbol role-mark layer_1_marks" role="graphics-object" aria-roledescription="symbol mark container"><path aria-label="Date: Jul 04, 2025; Cost ($): 0.48; Usage Type: USE1-PublicIPv4:InUseAddress" role="graphics-symbol" aria-roledescription="point" transform="translate(0,357.3333333333333)" d="M2.739,0A2.739,2.739,0,1,1,-2.739,0A2.739,2.739,0,1,1,2.739,0" fill="#f58518" stroke-width="2" stroke-dasharray="5,5" opacity="1"/><path aria-label="Date: Jul 05, 2025; Cost ($): 0.48; Usage Type: USE1-PublicIPv4:InUseAddress" role="graphics-symbol" aria-roledescription="point" transform="translate(27.586206896551722,357.3333333333333)" d="M2.739,0A2.739,2.739,0,1,1,-2.739,0A2.739,2.739,0,1,1,2.739,0" fill="#f58518" stroke-width="2" stroke-dasharray="5,5" opacity="1"/><path aria-label="Date: Jul 06, 2025; Cost ($): 0.48; Usage Type: USE1-PublicIPv4:InUseAddress" role="graphics-symbol" aria-roledescription="point" transform="translate(55.172413793103445,357.3333333333333)" d="M2.739,0A2.739,2.739,0,1,1,-2.739,0A2.739,2.739,0,1,1,2.739,0" fill="#f58518" stroke-width="2" stroke-dasharray="5,5" opacity="1"/><path aria-label="Date: Jul 07, 2025; Cost ($): 0.48; Usage Type: USE1-PublicIPv4:InUseAddress" role="graphics-symbol" aria-roledescription="point" transform="translate(82.75862068965517,357.3333333333333)" d="M2.739,0A2.739,2.739,0,1,1,-2.739,0A2.739,2.739,0,1,1,2.739,0" fill="#f58518" stroke-width="2" stroke-dasharray="5,5" opacity="1"/><path aria-label="Date: Jul 08, 2025; Cost ($): 0.48; Usage Type: USE1-PublicIPv4:InUseAddress" role="graphics-symbol" aria-roledescription="point" transform="translate(110.34482758620689,357.3333333333333)" d="M2.739,0A2.739,2.739,0,1,1,-2.739,0A2.739,2.739,0,1,1,2.739,0" fill="#f58518" stroke-width="2" stroke-dasharray="5,5" opacity="1"/><path aria-label="Date: Jul 09, 2025; Cost ($): 0.48; Usage Type: USE1-PublicIPv4:InUseAddress" role="graphics-symbol" aria-roledescription="point" transform="translate(137.93103448275863,357.3333333333333)" d="M2.739,0A2.739,2.739,0,1,1,-2.739,0A2.739,2.739,0,1,1,2.739,0" fill="#f58518" stroke-width="2" stroke-dasharray="5,5" opacity="1"/><path aria-label="Date: Jul 10, 2025; Cost ($): 0.48; Usage Type: USE1-PublicIPv4:InUseAddress" role="graphics-symbol" aria-roledescription="point" transform="translate(165.51724137931035,357.3333333333333)" d="M2.739,0A2.739,2.739,0,1,1,-2.739,0A2.739,2.739,0,1,1,2.739,0" fill="#f58518" stroke-width="2" stroke-dasharray="5,5" opacity="1"/><path aria-label="Date: Jul 11, 2025; Cost ($): 0.48; Usage Type: USE1-PublicIPv4:InUseAddress" role="graphics-symbol" aria-roledescription="point" transform="translate(193.10344827586206,357.3333333333333)" d="M2.739,0A2.739,2.739,0,1,1,-2.739,0A2.739,2.739,0,1,1,2.739,0" fill="#f58518" stroke-width="2" stroke-dasharray="5,5" opacity="1"/><path aria-label="Date: Jul 12, 2025; Cost ($): 0.48; Usage Type: USE1-PublicIPv4:InUseAddress" role="graphics-symbol" aria-roledescription="point" transform="translate(220.68965517241378,357.3333333333333)" d="M2.739,0A2.739,2.739,0,1,1,-2.739,0A2.739,2.739,0,1,1,2.739,0" fill="#f58518" stroke-width="2" stroke-dasharray="5,5" opacity="1"/><path aria-label="Date: Jul 13, 2025; Cost ($): 0.48; Usage Type: USE1-PublicIPv4:InUseAddress" role="graphics-symbol" aria-roledescription="point" transform="translate(248.27586206896552,357.3333333333333)" d="M2.739,0A2.739,2.739,0,1,1,-2.739,0A2.739,2.739,0,1,1,2.739,0" fill="#f58518" stroke-width="2" stroke-dasharray="5,5" opacity="1"/><path aria-label="Date: Jul 14, 2025; Cost ($): 0.48; Usage Type: USE1-PublicIPv4:InUseAddress" role="graphics-symbol" aria-roledescription="point" transform="translate(275.86206896551727,357.3333333333333)" d="M2.739,0A2.739,2.739,0,1,1,-2.739,0A2.739,2.739,0,1,1,2.739,0" fill="#f58518" stroke-width="2" stroke-dasharray="5,5" opacity="1"/><path aria-label="Date: Jul 15, 2025; Cost ($): 0.48; Usage Type: USE1-PublicIPv4:InUseAddress" role="graphics-symbol" aria-roledescription="point" transform="translate(303.44827586206895,357.3333333333333)" d="M2.739,0A2.739,2.739,0,1,1,-2.739,0A2.739,2.739,0,1,1,2.739,0" fill="#f58518" stroke-width="2" stroke-dasharray="5,5" opacity="1"/><path aria-label="Date: Jul 16, 2025; Cost ($): 0.48; Usage Type: USE1-PublicIPv4:InUseAddress" role="graphics-symbol" aria-roledescription="point" transform="translate(331.0344827586207,357.3333333333333)" d="M2.739,0A2.739,2.739,0,1,1,-2.739,0A2.739,2.739,0,1,1,2.739,0" fill="#f58518" stroke-width="2" stroke-dasharray="5,5" opacity="1"/><path aria-label="Date: Jul 17, 2025; Cost ($): 0.001059725; Usage Type: USE1-PublicIPv4:IdleAddress" role="graphics-symbol" aria-roledescription="point" transform="translate(358.62068965517244,399.9058022222222)" d="M2.739,0A2.739,2.739,0,1,1,-2.739,0A2.739,2.739,0,1,1,2.739,0" fill="#4c78a8" stroke-width="2" stroke-dasharray="5,5" opacity="1"/><path aria-label="Date: Jul 17, 2025; Cost ($): 0.481495835; Usage Type: USE1-PublicIPv4:InUseAddress" role="graphics-symbol" aria-roledescription="point" transform="translate(358.62068965517244,357.2003702222222)" d="M2.739,0A2.739,2.739,0,1,1,-2.739,0A2.739,2.739,0,1,1,2.739,0" fill="#f58518" stroke-width="2" stroke-dasharray="5,5" opacity="1"/><path aria-label="Date: Jul 18, 2025; Cost ($): 0.731282015; Usage Type: USE1-PublicIPv4:InUseAddress" role="graphics-symbol" aria-roledescription="point" transform="translate(386.2068965517241,334.9971542222222)" d="M2.739,0A2.739,2.739,0,1,1,-2.739,0A2.739,2.739,0,1,1,2.739,0" fill="#f58518" stroke-width="2" stroke-dasharray="5,5" opacity="1"/><path aria-label="Date: Jul 19, 2025; Cost ($): 0.000131945; Usage Type: USE1-PublicIPv4:IdleAddress" role="graphics-symbol" aria-roledescription="point" transform="translate(413.7931034482759,399.98827155555557)" d="M2.739,0A2.739,2.739,0,1,1,-2.739,0A2.739,2.739,0,1,1,2.739,0" fill="#4c78a8" stroke-width="2" stroke-dasharray="5,5" opacity="1"/><path aria-label="Date: Jul 19, 2025; Cost ($): 0.87447084; Usage Type: USE1-PublicIPv4:InUseAddress" role="graphics-symbol" aria-roledescription="point" transform="translate(413.7931034482759,322.26925866666664)" d="M2.739,0A2.739,2.739,0,1,1,-2.739,0A2.739,2.739,0,1,1,2.739,0" fill="#f58518" stroke-width="2" stroke-dasharray="5,5" opacity="1"/><path aria-label="Date: Jul 20, 2025; Cost ($): 0.000258335; Usage Type: USE1-PublicIPv4:IdleAddress" role="graphics-symbol" aria-roledescription="point" transform="translate(441.37931034482756,399.9770368888889)" d="M2.739,0A2.739,2.739,0,1,1,-2.739,0A2.739,2.739,0,1,1,2.739,0" fill="#4c78a8" stroke-width="2" stroke-dasharray="5,5" opacity="1"/><path aria-label="Date: Jul 20, 2025; Cost ($): 0.850358335; Usage Type: USE1-PublicIPv4:InUseAddress" role="graphics-symbol" aria-roledescription="point" transform="translate(441.37931034482756,324.41259244444444)" d="M2.739,0A2.739,2.739,0,1,1,-2.739,0A2.739,2.739,0,1,1,2.739,0" fill="#f58518" stroke-width="2" stroke-dasharray="5,5" opacity="1"/><path aria-label="Date: Jul 21, 2025; Cost ($): 0.792020835; Usage Type: USE1-PublicIPv4:InUseAddress" role="graphics-symbol" aria-roledescription="point" transform="translate(468.96551724137925,329.598148)" d="M2.739,0A2.739,2.739,0,1,1,-2.739,0A2.739,2.739,0,1,1,2.739,0" fill="#f58518" stroke-width="2" stroke-dasharray="5,5" opacity="1"/><path aria-label="Date: Jul 22, 2025; Cost ($): 0.00021528; Usage Type: USE1-PublicIPv4:IdleAddress" role="graphics-symbol" aria-roledescription="point" transform="translate(496.55172413793105,399.980864)" d="M2.739,0A2.739,2.739,0,1,1,-2.739,0A2.739,2.739,0,1,1,2.739,0" fill="#4c78a8" stroke-width="2" stroke-dasharray="5,5" opacity="1"/><path aria-label="Date: Jul 22, 2025; Cost ($): 0.9471; Usage Type: USE1-PublicIPv4:InUseAddress" role="graphics-symbol" aria-roledescription="point" transform="translate(496.55172413793105,315.81333333333333)" d="M2.739,0A2.739,2.739,0,1,1,-2.739,0A2.739,2.739,0,1,1,2.739,0" fill="#f58518" stroke-width="2" stroke-dasharray="5,5" opacity="1"/><path aria-label="Date: Jul 23, 2025; Cost ($): 0.00022778; Usage Type: USE1-PublicIPv4:IdleAddress" role="graphics-symbol" aria-roledescription="point" transform="translate(524.1379310344828,399.97975288888887)" d="M2.739,0A2.739,2.739,0,1,1,-2.739,0A2.739,2.739,0,1,1,2.739,0" fill="#4c78a8" stroke-width="2" stroke-dasharray="5,5" opacity="1"/><path aria-label="Date: Jul 23, 2025; Cost ($): 0.92454028; Usage Type: USE1-PublicIPv4:InUseAddress" role="graphics-symbol" aria-roledescription="point" transform="translate(524.1379310344828,317.81864177777777)" d="M2.739,0A2.739,2.739,0,1,1,-2.739,0A2.739,2.739,0,1,1,2.739,0" fill="#f58518" stroke-width="2" stroke-dasharray="5,5" opacity="1"/><path aria-label="Date: Jul 23, 2025; Cost ($): 0.09; Usage Type: USE1-VpcEndpoint-Hours" role="graphics-symbol" aria-roledescription="point" transform="translate(524.1379310344828,392)" d="M2.739,0A2.739,2.739,0,1,1,-2.739,0A2.739,2.739,0,1,1,2.739,0" fill="#72b7b2" stroke-width="2" stroke-dasharray="5,5" opacity="1"/><path aria-label="Date: Jul 24, 2025; Cost ($): 0.000083335; Usage Type: USE1-PublicIPv4:IdleAddress" role="graphics-symbol" aria-roledescription="point" transform="translate(551.7241379310345,399.9925924444444)" d="M2.739,0A2.739,2.739,0,1,1,-2.739,0A2.739,2.739,0,1,1,2.739,0" fill="#4c78a8" stroke-width="2" stroke-dasharray="5,5" opacity="1"/><path aria-label="Date: Jul 24, 2025; Cost ($): 0.69141111; Usage Type: USE1-PublicIPv4:InUseAddress" role="graphics-symbol" aria-roledescription="point" transform="translate(551.7241379310345,338.54123466666664)" d="M2.739,0A2.739,2.739,0,1,1,-2.739,0A2.739,2.739,0,1,1,2.739,0" fill="#f58518" stroke-width="2" stroke-dasharray="5,5" opacity="1"/><path aria-label="Date: Jul 24, 2025; Cost ($): 0.0001314555; Usage Type: USE1-VpcEndpoint-Bytes" role="graphics-symbol" aria-roledescription="point" transform="translate(551.7241379310345,399.9883150666667)" d="M2.739,0A2.739,2.739,0,1,1,-2.739,0A2.739,2.739,0,1,1,2.739,0" fill="#e45756" stroke-width="2" stroke-dasharray="5,5" opacity="1"/><path aria-label="Date: Jul 24, 2025; Cost ($): 3.06; Usage Type: USE1-VpcEndpoint-Hours" role="graphics-symbol" aria-roledescription="point" transform="translate(551.7241379310345,127.99999999999999)" d="M2.739,0A2.739,2.739,0,1,1,-2.739,0A2.739,2.739,0,1,1,2.739,0" fill="#72b7b2" stroke-width="2" stroke-dasharray="5,5" opacity="1"/><path aria-label="Date: Jul 25, 2025; Cost ($): 0.73458055; Usage Type: USE1-PublicIPv4:InUseAddress" role="graphics-symbol" aria-roledescription="point" transform="translate(579.3103448275862,334.7039511111111)" d="M2.739,0A2.739,2.739,0,1,1,-2.739,0A2.739,2.739,0,1,1,2.739,0" fill="#f58518" stroke-width="2" stroke-dasharray="5,5" opacity="1"/><path aria-label="Date: Jul 25, 2025; Cost ($): 0.0000355822; Usage Type: USE1-VpcEndpoint-Bytes" role="graphics-symbol" aria-roledescription="point" transform="translate(579.3103448275862,399.9968371377778)" d="M2.739,0A2.739,2.739,0,1,1,-2.739,0A2.739,2.739,0,1,1,2.739,0" fill="#e45756" stroke-width="2" stroke-dasharray="5,5" opacity="1"/><path aria-label="Date: Jul 25, 2025; Cost ($): 3.6; Usage Type: USE1-VpcEndpoint-Hours" role="graphics-symbol" aria-roledescription="point" transform="translate(579.3103448275862,79.99999999999999)" d="M2.739,0A2.739,2.739,0,1,1,-2.739,0A2.739,2.739,0,1,1,2.739,0" fill="#72b7b2" stroke-width="2" stroke-dasharray="5,5" opacity="1"/><path aria-label="Date: Jul 26, 2025; Cost ($): 0.00042084; Usage Type: USE1-PublicIPv4:IdleAddress" role="graphics-symbol" aria-roledescription="point" transform="translate(606.8965517241379,399.96259200000003)" d="M2.739,0A2.739,2.739,0,1,1,-2.739,0A2.739,2.739,0,1,1,2.739,0" fill="#4c78a8" stroke-width="2" stroke-dasharray="5,5" opacity="1"/><path aria-label="Date: Jul 26, 2025; Cost ($): 0.60126667; Usage Type: USE1-PublicIPv4:InUseAddress" role="graphics-symbol" aria-roledescription="point" transform="translate(606.8965517241379,346.5540737777778)" d="M2.739,0A2.739,2.739,0,1,1,-2.739,0A2.739,2.739,0,1,1,2.739,0" fill="#f58518" stroke-width="2" stroke-dasharray="5,5" opacity="1"/><path aria-label="Date: Jul 26, 2025; Cost ($): 0.0000341737; Usage Type: USE1-VpcEndpoint-Bytes" role="graphics-symbol" aria-roledescription="point" transform="translate(606.8965517241379,399.9969623377778)" d="M2.739,0A2.739,2.739,0,1,1,-2.739,0A2.739,2.739,0,1,1,2.739,0" fill="#e45756" stroke-width="2" stroke-dasharray="5,5" opacity="1"/><path aria-label="Date: Jul 26, 2025; Cost ($): 2.71; Usage Type: USE1-VpcEndpoint-Hours" role="graphics-symbol" aria-roledescription="point" transform="translate(606.8965517241379,159.11111111111111)" d="M2.739,0A2.739,2.739,0,1,1,-2.739,0A2.739,2.739,0,1,1,2.739,0" fill="#72b7b2" stroke-width="2" stroke-dasharray="5,5" opacity="1"/><path aria-label="Date: Jul 27, 2025; Cost ($): 0.72; Usage Type: USE1-PublicIPv4:InUseAddress" role="graphics-symbol" aria-roledescription="point" transform="translate(634.4827586206897,336)" d="M2.739,0A2.739,2.739,0,1,1,-2.739,0A2.739,2.739,0,1,1,2.739,0" fill="#f58518" stroke-width="2" stroke-dasharray="5,5" opacity="1"/><path aria-label="Date: Jul 27, 2025; Cost ($): 1.2; Usage Type: USE1-VpcEndpoint-Hours" role="graphics-symbol" aria-roledescription="point" transform="translate(634.4827586206897,293.33333333333337)" d="M2.739,0A2.739,2.739,0,1,1,-2.739,0A2.739,2.739,0,1,1,2.739,0" fill="#72b7b2" stroke-width="2" stroke-dasharray="5,5" opacity="1"/><path aria-label="Date: Jul 28, 2025; Cost ($): 0.72; Usage Type: USE1-PublicIPv4:InUseAddress" role="graphics-symbol" aria-roledescription="point" transform="translate(662.0689655172414,336)" d="M2.739,0A2.739,2.739,0,1,1,-2.739,0A2.739,2.739,0,1,1,2.739,0" fill="#f58518" stroke-width="2" stroke-dasharray="5,5" opacity="1"/><path aria-label="Date: Jul 28, 2025; Cost ($): 3.189e-7; Usage Type: USE1-VpcEndpoint-Bytes" role="graphics-symbol" aria-roledescription="point" transform="translate(662.0689655172414,399.9999716533333)" d="M2.739,0A2.739,2.739,0,1,1,-2.739,0A2.739,2.739,0,1,1,2.739,0" fill="#e45756" stroke-width="2" stroke-dasharray="5,5" opacity="1"/><path aria-label="Date: Jul 28, 2025; Cost ($): 1.2; Usage Type: USE1-VpcEndpoint-Hours" role="graphics-symbol" aria-roledescription="point" transform="translate(662.0689655172414,293.33333333333337)" d="M2.739,0A2.739,2.739,0,1,1,-2.739,0A2.739,2.739,0,1,1,2.739,0" fill="#72b7b2" stroke-width="2" stroke-dasharray="5,5" opacity="1"/><path aria-label="Date: Jul 29, 2025; Cost ($): 0.50436666; Usage Type: USE1-PublicIPv4:InUseAddress" role="graphics-symbol" aria-roledescription="point" transform="translate(689.655172413793,355.167408)" d="M2.739,0A2.739,2.739,0,1,1,-2.739,0A2.739,2.739,0,1,1,2.739,0" fill="#f58518" stroke-width="2" stroke-dasharray="5,5" opacity="1"/><path aria-label="Date: Jul 29, 2025; Cost ($): 0.0000048019; Usage Type: USE1-VpcEndpoint-Bytes" role="graphics-symbol" aria-roledescription="point" transform="translate(689.655172413793,399.9995731644444)" d="M2.739,0A2.739,2.739,0,1,1,-2.739,0A2.739,2.739,0,1,1,2.739,0" fill="#e45756" stroke-width="2" stroke-dasharray="5,5" opacity="1"/><path aria-label="Date: Jul 29, 2025; Cost ($): 0.17; Usage Type: USE1-VpcEndpoint-Hours" role="graphics-symbol" aria-roledescription="point" transform="translate(689.655172413793,384.88888888888886)" d="M2.739,0A2.739,2.739,0,1,1,-2.739,0A2.739,2.739,0,1,1,2.739,0" fill="#72b7b2" stroke-width="2" stroke-dasharray="5,5" opacity="1"/><path aria-label="Date: Jul 30, 2025; Cost ($): 0.71017361; Usage Type: USE1-PublicIPv4:InUseAddress" role="graphics-symbol" aria-roledescription="point" transform="translate(717.2413793103449,336.8734568888889)" d="M2.739,0A2.739,2.739,0,1,1,-2.739,0A2.739,2.739,0,1,1,2.739,0" fill="#f58518" stroke-width="2" stroke-dasharray="5,5" opacity="1"/><path aria-label="Date: Jul 30, 2025; Cost ($): 0.000016909; Usage Type: USE1-VpcEndpoint-Bytes" role="graphics-symbol" aria-roledescription="point" transform="translate(717.2413793103449,399.9984969777778)" d="M2.739,0A2.739,2.739,0,1,1,-2.739,0A2.739,2.739,0,1,1,2.739,0" fill="#e45756" stroke-width="2" stroke-dasharray="5,5" opacity="1"/><path aria-label="Date: Jul 30, 2025; Cost ($): 1.4; Usage Type: USE1-VpcEndpoint-Hours" role="graphics-symbol" aria-roledescription="point" transform="translate(717.2413793103449,275.55555555555554)" d="M2.739,0A2.739,2.739,0,1,1,-2.739,0A2.739,2.739,0,1,1,2.739,0" fill="#72b7b2" stroke-width="2" stroke-dasharray="5,5" opacity="1"/><path aria-label="Date: Jul 31, 2025; Cost ($): 0.79998333; Usage Type: USE1-PublicIPv4:InUseAddress" role="graphics-symbol" aria-roledescription="point" transform="translate(744.8275862068965,328.8903706666667)" d="M2.739,0A2.739,2.739,0,1,1,-2.739,0A2.739,2.739,0,1,1,2.739,0" fill="#f58518" stroke-width="2" stroke-dasharray="5,5" opacity="1"/><path aria-label="Date: Jul 31, 2025; Cost ($): 0.0004089265; Usage Type: USE1-VpcEndpoint-Bytes" role="graphics-symbol" aria-roledescription="point" transform="translate(744.8275862068965,399.9636509777778)" d="M2.739,0A2.739,2.739,0,1,1,-2.739,0A2.739,2.739,0,1,1,2.739,0" fill="#e45756" stroke-width="2" stroke-dasharray="5,5" opacity="1"/><path aria-label="Date: Jul 31, 2025; Cost ($): 1.2; Usage Type: USE1-VpcEndpoint-Hours" role="graphics-symbol" aria-roledescription="point" transform="translate(744.8275862068965,293.33333333333337)" d="M2.739,0A2.739,2.739,0,1,1,-2.739,0A2.739,2.739,0,1,1,2.739,0" fill="#72b7b2" stroke-width="2" stroke-dasharray="5,5" opacity="1"/><path aria-label="Date: Aug 01, 2025; Cost ($): 0.96; Usage Type: USE1-PublicIPv4:InUseAddress" role="graphics-symbol" aria-roledescription="point" transform="translate(772.4137931034483,314.66666666666663)" d="M2.739,0A2.739,2.739,0,1,1,-2.739,0A2.739,2.739,0,1,1,2.739,0" fill="#f58518" stroke-width="2" stroke-dasharray="5,5" opacity="1"/><path aria-label="Date: Aug 01, 2025; Cost ($): 1.2; Usage Type: USE1-VpcEndpoint-Hours" role="graphics-symbol" aria-roledescription="point" transform="translate(772.4137931034483,293.33333333333337)" d="M2.739,0A2.739,2.739,0,1,1,-2.739,0A2.739,2.739,0,1,1,2.739,0" fill="#72b7b2" stroke-width="2" stroke-dasharray="5,5" opacity="1"/><path aria-label="Date: Aug 02, 2025; Cost ($): 1.07079596; Usage Type: USE1-PublicIPv4:InUseAddress" role="graphics-symbol" aria-roledescription="point" transform="translate(800,304.8181368888889)" d="M2.739,0A2.739,2.739,0,1,1,-2.739,0A2.739,2.739,0,1,1,2.739,0" fill="#f58518" stroke-width="2" stroke-dasharray="5,5" opacity="1"/><path aria-label="Date: Aug 02, 2025; Cost ($): 0.0003847577; Usage Type: USE1-VpcEndpoint-Bytes" role="graphics-symbol" aria-roledescription="point" transform="translate(800,399.96579931555556)" d="M2.739,0A2.739,2.739,0,1,1,-2.739,0A2.739,2.739,0,1,1,2.739,0" fill="#e45756" stroke-width="2" stroke-dasharray="5,5" opacity="1"/><path aria-label="Date: Aug 02, 2025; Cost ($): 1.2; Usage Type: USE1-VpcEndpoint-Hours" role="graphics-symbol" aria-roledescription="point" transform="translate(800,293.33333333333337)" d="M2.739,0A2.739,2.739,0,1,1,-2.739,0A2.739,2.739,0,1,1,2.739,0" fill="#72b7b2" stroke-width="2" stroke-dasharray="5,5" opacity="1"/><path aria-label="Date: Jul 04, 2025; Cost ($): 0.48; Usage Type: 📊 TOTAL" role="graphics-symbol" aria-roledescription="point" transform="translate(0,357.3333333333333)" d="M2.739,0A2.739,2.739,0,1,1,-2.739,0A2.739,2.739,0,1,1,2.739,0" fill="#54a24b" stroke-width="2" stroke-dasharray="0" opacity="1"/><path aria-label="Date: Jul 05, 2025; Cost ($): 0.48; Usage Type: 📊 TOTAL" role="graphics-symbol" aria-roledescription="point" transform="translate(27.586206896551722,357.3333333333333)" d="M2.739,0A2.739,2.739,0,1,1,-2.739,0A2.739,2.739,0,1,1,2.739,0" fill="#54a24b" stroke-width="2" stroke-dasharray="0" opacity="1"/><path aria-label="Date: Jul 06, 2025; Cost ($): 0.48; Usage Type: 📊 TOTAL" role="graphics-symbol" aria-roledescription="point" transform="translate(55.172413793103445,357.3333333333333)" d="M2.739,0A2.739,2.739,0,1,1,-2.739,0A2.739,2.739,0,1,1,2.739,0" fill="#54a24b" stroke-width="2" stroke-dasharray="0" opacity="1"/><path aria-label="Date: Jul 07, 2025; Cost ($): 0.48; Usage Type: 📊 TOTAL" role="graphics-symbol" aria-roledescription="point" transform="translate(82.75862068965517,357.3333333333333)" d="M2.739,0A2.739,2.739,0,1,1,-2.739,0A2.739,2.739,0,1,1,2.739,0" fill="#54a24b" stroke-width="2" stroke-dasharray="0" opacity="1"/><path aria-label="Date: Jul 08, 2025; Cost ($): 0.48; Usage Type: 📊 TOTAL" role="graphics-symbol" aria-roledescription="point" transform="translate(110.34482758620689,357.3333333333333)" d="M2.739,0A2.739,2.739,0,1,1,-2.739,0A2.739,2.739,0,1,1,2.739,0" fill="#54a24b" stroke-width="2" stroke-dasharray="0" opacity="1"/><path aria-label="Date: Jul 09, 2025; Cost ($): 0.48; Usage Type: 📊 TOTAL" role="graphics-symbol" aria-roledescription="point" transform="translate(137.93103448275863,357.3333333333333)" d="M2.739,0A2.739,2.739,0,1,1,-2.739,0A2.739,2.739,0,1,1,2.739,0" fill="#54a24b" stroke-width="2" stroke-dasharray="0" opacity="1"/><path aria-label="Date: Jul 10, 2025; Cost ($): 0.48; Usage Type: 📊 TOTAL" role="graphics-symbol" aria-roledescription="point" transform="translate(165.51724137931035,357.3333333333333)" d="M2.739,0A2.739,2.739,0,1,1,-2.739,0A2.739,2.739,0,1,1,2.739,0" fill="#54a24b" stroke-width="2" stroke-dasharray="0" opacity="1"/><path aria-label="Date: Jul 11, 2025; Cost ($): 0.48; Usage Type: 📊 TOTAL" role="graphics-symbol" aria-roledescription="point" transform="translate(193.10344827586206,357.3333333333333)" d="M2.739,0A2.739,2.739,0,1,1,-2.739,0A2.739,2.739,0,1,1,2.739,0" fill="#54a24b" stroke-width="2" stroke-dasharray="0" opacity="1"/><path aria-label="Date: Jul 12, 2025; Cost ($): 0.48; Usage Type: 📊 TOTAL" role="graphics-symbol" aria-roledescription="point" transform="translate(220.68965517241378,357.3333333333333)" d="M2.739,0A2.739,2.739,0,1,1,-2.739,0A2.739,2.739,0,1,1,2.739,0" fill="#54a24b" stroke-width="2" stroke-dasharray="0" opacity="1"/><path aria-label="Date: Jul 13, 2025; Cost ($): 0.48; Usage Type: 📊 TOTAL" role="graphics-symbol" aria-roledescription="point" transform="translate(248.27586206896552,357.3333333333333)" d="M2.739,0A2.739,2.739,0,1,1,-2.739,0A2.739,2.739,0,1,1,2.739,0" fill="#54a24b" stroke-width="2" stroke-dasharray="0" opacity="1"/><path aria-label="Date: Jul 14, 2025; Cost ($): 0.48; Usage Type: 📊 TOTAL" role="graphics-symbol" aria-roledescription="point" transform="translate(275.86206896551727,357.3333333333333)" d="M2.739,0A2.739,2.739,0,1,1,-2.739,0A2.739,2.739,0,1,1,2.739,0" fill="#54a24b" stroke-width="2" stroke-dasharray="0" opacity="1"/><path aria-label="Date: Jul 15, 2025; Cost ($): 0.48; Usage Type: 📊 TOTAL" role="graphics-symbol" aria-roledescription="point" transform="translate(303.44827586206895,357.3333333333333)" d="M2.739,0A2.739,2.739,0,1,1,-2.739,0A2.739,2.739,0,1,1,2.739,0" fill="#54a24b" stroke-width="2" stroke-dasharray="0" opacity="1"/><path aria-label="Date: Jul 16, 2025; Cost ($): 0.48; Usage Type: 📊 TOTAL" role="graphics-symbol" aria-roledescription="point" transform="translate(331.0344827586207,357.3333333333333)" d="M2.739,0A2.739,2.739,0,1,1,-2.739,0A2.739,2.739,0,1,1,2.739,0" fill="#54a24b" stroke-width="2" stroke-dasharray="0" opacity="1"/><path aria-label="Date: Jul 17, 2025; Cost ($): 0.48255556; Usage Type: 📊 TOTAL" role="graphics-symbol" aria-roledescription="point" transform="translate(358.62068965517244,357.10617244444444)" d="M2.739,0A2.739,2.739,0,1,1,-2.739,0A2.739,2.739,0,1,1,2.739,0" fill="#54a24b" stroke-width="2" stroke-dasharray="0" opacity="1"/><path aria-label="Date: Jul 18, 2025; Cost ($): 0.731282015; Usage Type: 📊 TOTAL" role="graphics-symbol" aria-roledescription="point" transform="translate(386.2068965517241,334.9971542222222)" d="M2.739,0A2.739,2.739,0,1,1,-2.739,0A2.739,2.739,0,1,1,2.739,0" fill="#54a24b" stroke-width="2" stroke-dasharray="0" opacity="1"/><path aria-label="Date: Jul 19, 2025; Cost ($): 0.874602785; Usage Type: 📊 TOTAL" role="graphics-symbol" aria-roledescription="point" transform="translate(413.7931034482759,322.2575302222222)" d="M2.739,0A2.739,2.739,0,1,1,-2.739,0A2.739,2.739,0,1,1,2.739,0" fill="#54a24b" stroke-width="2" stroke-dasharray="0" opacity="1"/><path aria-label="Date: Jul 20, 2025; Cost ($): 0.85061667; Usage Type: 📊 TOTAL" role="graphics-symbol" aria-roledescription="point" transform="translate(441.37931034482756,324.3896293333333)" d="M2.739,0A2.739,2.739,0,1,1,-2.739,0A2.739,2.739,0,1,1,2.739,0" fill="#54a24b" stroke-width="2" stroke-dasharray="0" opacity="1"/><path aria-label="Date: Jul 21, 2025; Cost ($): 0.792020835; Usage Type: 📊 TOTAL" role="graphics-symbol" aria-roledescription="point" transform="translate(468.96551724137925,329.598148)" d="M2.739,0A2.739,2.739,0,1,1,-2.739,0A2.739,2.739,0,1,1,2.739,0" fill="#54a24b" stroke-width="2" stroke-dasharray="0" opacity="1"/><path aria-label="Date: Jul 22, 2025; Cost ($): 0.94731528; Usage Type: 📊 TOTAL" role="graphics-symbol" aria-roledescription="point" transform="translate(496.55172413793105,315.79419733333333)" d="M2.739,0A2.739,2.739,0,1,1,-2.739,0A2.739,2.739,0,1,1,2.739,0" fill="#54a24b" stroke-width="2" stroke-dasharray="0" opacity="1"/><path aria-label="Date: Jul 23, 2025; Cost ($): 1.01476806; Usage Type: 📊 TOTAL" role="graphics-symbol" aria-roledescription="point" transform="translate(524.1379310344828,309.79839466666664)" d="M2.739,0A2.739,2.739,0,1,1,-2.739,0A2.739,2.739,0,1,1,2.739,0" fill="#54a24b" stroke-width="2" stroke-dasharray="0" opacity="1"/><path aria-label="Date: Jul 24, 2025; Cost ($): 3.7516259005; Usage Type: 📊 TOTAL" role="graphics-symbol" aria-roledescription="point" transform="translate(551.7241379310345,66.5221421777778)" d="M2.739,0A2.739,2.739,0,1,1,-2.739,0A2.739,2.739,0,1,1,2.739,0" fill="#54a24b" stroke-width="2" stroke-dasharray="0" opacity="1"/><path aria-label="Date: Jul 25, 2025; Cost ($): 4.3346161322; Usage Type: 📊 TOTAL" role="graphics-symbol" aria-roledescription="point" transform="translate(579.3103448275862,14.700788248888896)" d="M2.739,0A2.739,2.739,0,1,1,-2.739,0A2.739,2.739,0,1,1,2.739,0" fill="#54a24b" stroke-width="2" stroke-dasharray="0" opacity="1"/><path aria-label="Date: Jul 26, 2025; Cost ($): 3.3117216837; Usage Type: 📊 TOTAL" role="graphics-symbol" aria-roledescription="point" transform="translate(606.8965517241379,105.62473922666666)" d="M2.739,0A2.739,2.739,0,1,1,-2.739,0A2.739,2.739,0,1,1,2.739,0" fill="#54a24b" stroke-width="2" stroke-dasharray="0" opacity="1"/><path aria-label="Date: Jul 27, 2025; Cost ($): 1.92; Usage Type: 📊 TOTAL" role="graphics-symbol" aria-roledescription="point" transform="translate(634.4827586206897,229.33333333333334)" d="M2.739,0A2.739,2.739,0,1,1,-2.739,0A2.739,2.739,0,1,1,2.739,0" fill="#54a24b" stroke-width="2" stroke-dasharray="0" opacity="1"/><path aria-label="Date: Jul 28, 2025; Cost ($): 1.9200003189; Usage Type: 📊 TOTAL" role="graphics-symbol" aria-roledescription="point" transform="translate(662.0689655172414,229.3333049866667)" d="M2.739,0A2.739,2.739,0,1,1,-2.739,0A2.739,2.739,0,1,1,2.739,0" fill="#54a24b" stroke-width="2" stroke-dasharray="0" opacity="1"/><path aria-label="Date: Jul 29, 2025; Cost ($): 0.6743714619; Usage Type: 📊 TOTAL" role="graphics-symbol" aria-roledescription="point" transform="translate(689.655172413793,340.0558700533333)" d="M2.739,0A2.739,2.739,0,1,1,-2.739,0A2.739,2.739,0,1,1,2.739,0" fill="#54a24b" stroke-width="2" stroke-dasharray="0" opacity="1"/><path aria-label="Date: Jul 30, 2025; Cost ($): 2.110190519; Usage Type: 📊 TOTAL" role="graphics-symbol" aria-roledescription="point" transform="translate(717.2413793103449,212.42750942222227)" d="M2.739,0A2.739,2.739,0,1,1,-2.739,0A2.739,2.739,0,1,1,2.739,0" fill="#54a24b" stroke-width="2" stroke-dasharray="0" opacity="1"/><path aria-label="Date: Jul 31, 2025; Cost ($): 2.0003922565; Usage Type: 📊 TOTAL" role="graphics-symbol" aria-roledescription="point" transform="translate(744.8275862068965,222.18735497777774)" d="M2.739,0A2.739,2.739,0,1,1,-2.739,0A2.739,2.739,0,1,1,2.739,0" fill="#54a24b" stroke-width="2" stroke-dasharray="0" opacity="1"/><path aria-label="Date: Aug 01, 2025; Cost ($): 2.16; Usage Type: 📊 TOTAL" role="graphics-symbol" aria-roledescription="point" transform="translate(772.4137931034483,208)" d="M2.739,0A2.739,2.739,0,1,1,-2.739,0A2.739,2.739,0,1,1,2.739,0" fill="#54a24b" stroke-width="2" stroke-dasharray="0" opacity="1"/><path aria-label="Date: Aug 02, 2025; Cost ($): 2.2711807177; Usage Type: 📊 TOTAL" role="graphics-symbol" aria-roledescription="point" transform="translate(800,198.11726953777776)" d="M2.739,0A2.739,2.739,0,1,1,-2.739,0A2.739,2.739,0,1,1,2.739,0" fill="#54a24b" stroke-width="2" stroke-dasharray="0" opacity="1"/></g><g class="mark-group role-legend" role="graphics-symbol" aria-roledescription="legend" aria-label="Symbol legend titled 'Usage Type' for fill color and stroke color with 5 values: USE1-PublicIPv4:IdleAddress, USE1-PublicIPv4:InUseAddress, USE1-VpcEndpoint-Bytes, USE1-VpcEndpoint-Hours, 📊 TOTAL"><g transform="translate(833,0)"><path class="background" aria-hidden="true" d="M0,0h270v128h-270Z" pointer-events="none"/><g><g class="mark-group role-legend-entry"><g transform="translate(15,32)"><path class="background" aria-hidden="true" d="M0,0h0v0h0Z" pointer-events="none"/><g><g class="mark-group role-scope" role="graphics-object" aria-roledescription="group mark container"><g transform="translate(0,0)"><path class="background" aria-hidden="true" d="M0,0h240v13h-240Z" pointer-events="none" opacity="1"/><g><g class="mark-symbol role-legend-symbol" pointer-events="none"><path transform="translate(6,6)" d="M5,0A5,5,0,1,1,-5,0A5,5,0,1,1,5,0" fill="#4c78a8" stroke="#4c78a8" stroke-width="2" opacity="1"/></g><g class="mark-text role-legend-label" pointer-events="none"><text text-anchor="start" transform="translate(16,9)" font-family="sans-serif" font-size="10px" fill="#000" opacity="1">USE1-PublicIPv4:IdleAddress</text></g></g><path class="foreground" aria-hidden="true" d="" pointer-events="none" display="none"/></g><g transform="translate(0,17)"><path class="background" aria-hidden="true" d="M0,0h240v13h-240Z" pointer-events="none" opacity="1"/><g><g class="mark-symbol role-legend-symbol" pointer-events="none"><path transform="translate(6,6)" d="M5,0A5,5,0,1,1,-5,0A5,5,0,1,1,5,0" fill="#f58518" stroke="#f58518" stroke-width="2" opacity="1"/></g><g class="mark-text role-legend-label" pointer-events="none"><text text-anchor="start" transform="translate(16,9)" font-family="sans-serif" font-size="10px" fill="#000" opacity="1">USE1-PublicIPv4:InUseAddress</text></g></g><path class="foreground" aria-hidden="true" d="" pointer-events="none" display="none"/></g><g transform="translate(0,34)"><path class="background" aria-hidden="true" d="M0,0h240v13h-240Z" pointer-events="none" opacity="1"/><g><g class="mark-symbol role-legend-symbol" pointer-events="none"><path transform="translate(6,6)" d="M5,0A5,5,0,1,1,-5,0A5,5,0,1,1,5,0" fill="#e45756" stroke="#e45756" stroke-width="2" opacity="1"/></g><g class="mark-text role-legend-label" pointer-events="none"><text text-anchor="start" transform="translate(16,9)" font-family="sans-serif" font-size="10px" fill="#000" opacity="1">USE1-VpcEndpoint-Bytes</text></g></g><path class="foreground" aria-hidden="true" d="" pointer-events="none" display="none"/></g><g transform="translate(0,51)"><path class="background" aria-hidden="true" d="M0,0h240v13h-240Z" pointer-events="none" opacity="1"/><g><g class="mark-symbol role-legend-symbol" pointer-events="none"><path transform="translate(6,6)" d="M5,0A5,5,0,1,1,-5,0A5,5,0,1,1,5,0" fill="#72b7b2" stroke="#72b7b2" stroke-width="2" opacity="1"/></g><g class="mark-text role-legend-label" pointer-events="none"><text text-anchor="start" transform="translate(16,9)" font-family="sans-serif" font-size="10px" fill="#000" opacity="1">USE1-VpcEndpoint-Hours</text></g></g><path class="foreground" aria-hidden="true" d="" pointer-events="none" display="none"/></g><g transform="translate(0,68)"><path class="background" aria-hidden="true" d="M0,0h240v13h-240Z" pointer-events="none" opacity="1"/><g><g class="mark-symbol role-legend-symbol" pointer-events="none"><path transform="translate(6,6)" d="M5,0A5,5,0,1,1,-5,0A5,5,0,1,1,5,0" fill="#54a24b" stroke="#54a24b" stroke-width="2" opacity="1"/></g><g class="mark-text role-legend-label" pointer-events="none"><text text-anchor="start" transform="translate(16,9)" font-family="sans-serif" font-size="10px" fill="#000" opacity="1">📊 TOTAL</text></g></g><path class="foreground" aria-hidden="true" d="" pointer-events="none" display="none"/></g></g></g><path class="foreground" aria-hidden="true" d="" pointer-events="none" display="none"/></g></g><g class="mark-text role-legend-title" pointer-events="none"><text text-anchor="start" transform="translate(15,24)" font-family="sans-serif" font-size="12px" font-weight="bold" fill="#000" opacity="1">Usage Type</text></g></g><path class="foreground" aria-hidden="true" d="" pointer-events="none" display="none"/></g></g><g class="mark-group role-title"><g transform="translate(400,-36)"><path class="background" aria-hidden="true" d="M0,0h0v0h0Z" pointer-events="none"/><g><g class="mark-text role-title-text" role="graphics-symbol" aria-roledescription="title" aria-label="Title text 'AWS Daily Costs by Usage Type (Amazon Virtual Private Cloud)'" pointer-events="none"><text text-anchor="middle" transform="translate(0,10)" font-family="sans-serif" font-size="13px" font-weight="bold" fill="#000" opacity="1">AWS Daily Costs by Usage Type (Amazon Virtual Private Cloud)</text></g><g class="mark-text role-title-subtitle" role="graphics-symbol" aria-roledescription="subtitle" aria-label="Subtitle text 'Estimated Monthly: $69.13'" pointer-events="none"><text text-anchor="middle" transform="translate(0,25)" font-family="sans-serif" font-size="12px" fill="#000" opacity="1">Estimated Monthly: $69.13</text></g></g><path class="foreground" aria-hidden="true" d="" pointer-events="none" display="none"/></g></g></g><path class="foreground" aria-hidden="true" d="" display="none"/></g></g></g></svg>